<svg width="253" height="56" viewBox="0 0 253 56" fill="none" xmlns="http://www.w3.org/2000/svg"><path d="M0 16.8008V55.994H30.5829V48.3246H8.73516V40.0911H27.7087V32.4236H8.73516V24.4702H30.2949V16.8008H0Z" fill="#29313E"></path><path d="M38.9233 16.8008H69.2182V24.4702H47.6605V32.4217H66.63V40.0911H47.6605V48.3206H69.5063V55.994H38.9233V16.8008Z" fill="#29313E"></path><path d="M77.8472 25.7614H86.6316V30.0838C90.4982 23.9896 101.025 23.201 104.487 30.0242C107.217 26.8321 110.423 25.1913 114.656 25.1973C121.46 25.2013 125.172 29.3349 125.113 36.3091V55.9921H116.329L116.331 39.1695C116.337 35.4947 114.83 33.0614 111.188 33.0375C107.576 33.0614 105.844 35.4688 105.871 39.1695V55.9921H97.0909V39.1695C97.0988 35.4947 95.5877 33.0614 91.9481 33.0375C88.338 33.0614 86.606 35.4669 86.6336 39.1695V55.9921H77.8491V25.7614H77.8472Z" fill="#29313E"></path><path d="M148.798 48.2949C159.04 48.3525 158.734 32.9243 148.687 32.8985C138.451 32.8309 138.749 48.2889 148.798 48.2949ZM148.689 55.9941C137.741 56.304 130.386 44.5327 134.614 34.6088C139.512 22.2257 157.935 22.0529 162.875 34.4995C167.116 44.4592 159.654 56.2801 148.689 55.9941Z" fill="#29313E"></path><path d="M230.758 36.3966C229.793 28.8662 217.985 28.9953 216.856 36.3966H230.758ZM224.796 55.9942C209.756 56.3557 203.588 37.9976 212.82 27.3367C216.925 22.3668 225.09 21.02 230.669 23.8466C237.412 27.1401 239.678 35.2306 238.986 42.3279H217.298C218.501 49.8881 227.98 50.329 232.474 45.3373L237.53 49.9735C234.35 53.986 230.127 56.024 224.796 55.9942Z" fill="#29313E"></path><path d="M244.659 14H253L252.998 55.994H244.659V14Z" fill="#29313E"></path><path d="M194.535 25.1995L186.275 38.2718L178.012 25.1995H166.812L186.275 55.9943L205.736 25.1995H194.535Z" fill="#29313E"></path><path d="M200.037 6.31679C187.139 -8.1083 165.617 4.26684 166.828 22.3985H176.901C176.214 7.61985 196.342 7.62978 195.648 22.3985H205.72C205.943 16.4036 203.892 10.5696 200.037 6.31679Z" fill="#3E63AD"></path></svg>